<svg width="75" height="75" viewBox="0 0 75 75" fill="none" xmlns="http://www.w3.org/2000/svg">
<g clip-path="url(#clip0_11099_40)">
<path fill-rule="evenodd" clip-rule="evenodd" d="M50.8586 0.670166L33.7104 8.00061V68.7671H38.9311V55.9934L37.7229 56.1084C37.2287 56.155 36.7902 55.7923 36.7436 55.298C36.697 54.8037 37.0597 54.3652 37.554 54.3185L46.846 53.4341C47.3403 53.3873 47.7788 53.7502 47.8256 54.2445C47.8722 54.7388 47.5094 55.1773 47.0152 55.2239L45.638 55.355V68.7669H68.007V8.00061L50.8586 0.670166ZM40.4374 47.8058L37.196 48.1161V41.8531L40.4374 41.3533V47.8058ZM40.4385 37.6324L37.1962 38.2415V31.9635L40.4385 31.1643V37.6324ZM40.4385 27.4538L37.1962 28.3619V22.0839L40.4385 20.9858V27.4538ZM40.4385 17.27L37.1962 18.4723V12.6073L40.4395 11.217L40.4385 17.27ZM47.3729 47.1451L43.7204 47.4952V40.8399L47.3729 40.2757V47.1451ZM47.3729 36.3209L43.7204 37.0083V30.3583L47.3729 29.4569V36.3207V36.3209ZM47.3729 25.5021L43.7204 26.5266V19.8713L47.3729 18.6327V25.5021ZM47.3729 14.6833L43.7204 16.0448L43.7194 9.81176L47.3728 8.24429V14.6833H47.3729ZM56.0478 58.0956C56.0478 58.5938 55.644 58.9976 55.1458 58.9976C54.6476 58.9976 54.2438 58.5938 54.2438 58.0956V8.5484C54.2438 8.05022 54.6476 7.64644 55.1458 7.64644C55.644 7.64644 56.0478 8.05022 56.0478 8.5484V58.0959V58.0956ZM60.3348 58.0956C60.3348 58.5938 59.931 58.9976 59.4329 58.9976C58.9347 58.9976 58.5309 58.5938 58.5309 58.0956V10.3811C58.5309 9.88287 58.9348 9.47908 59.4329 9.47908C59.9309 9.47908 60.3348 9.88302 60.3348 10.3811V58.0959V58.0956ZM64.6219 58.0956C64.6219 58.5938 64.2181 58.9976 63.7199 58.9976C63.2217 58.9976 62.8179 58.5938 62.8179 58.0956V12.2137C62.8179 11.7155 63.2217 11.3117 63.7199 11.3117C64.2181 11.3117 64.6219 11.7155 64.6219 12.2137V58.0959V58.0956ZM24.8461 18.3737L6.98929 26.007V68.7671H12.5644V58.8496L11.3562 58.9647C10.8619 59.0113 10.4234 58.6485 10.3768 58.1542C10.3302 57.66 10.6929 57.2214 11.1872 57.1748L20.4793 56.2905C20.9735 56.2439 21.4121 56.6066 21.4588 57.1009C21.5054 57.5952 21.1427 58.0337 20.6484 58.0804L19.2712 58.2115V68.7672H31.9066V21.3918L24.8461 18.3737ZM13.4427 49.6228L10.8046 49.9841V44.906L13.4427 44.364V49.6228ZM13.4427 41.3456L10.8046 41.9944V36.9162L13.4427 36.0868V41.3456ZM13.4436 33.0652L10.8048 33.9983V29.2555L13.4445 28.1437L13.4436 33.0652ZM19.1794 48.8307L16.1411 49.2494V43.811L19.1794 43.184V48.8307ZM19.1794 39.9291L16.1411 40.6776V35.2358L19.1794 34.2757V39.9291ZM19.1794 31.0241L16.1402 32.1059V27.0097L19.1794 25.7219V31.0241ZM0.750977 70.571H74.2451V74.3309H0.750977V70.571Z" fill="#D1A043"/>
</g>
<defs>
<clipPath id="clip0_11099_40">
<rect width="75" height="75" fill="white"/>
</clipPath>
</defs>
</svg>
