<svg width="75" height="75" viewBox="0 0 75 75" fill="none" xmlns="http://www.w3.org/2000/svg">
<path d="M69.8223 68.3222L47.0723 33.6555C46.8724 33.3503 46.5317 33.1667 46.1667 33.1667H28.8334C28.4689 33.1667 28.1282 33.3503 27.9278 33.6555L5.17775 68.3222C4.95928 68.6549 4.94077 69.0813 5.13014 69.4315C5.31898 69.7822 5.68556 70.0001 6.08335 70.0001H68.9167C69.315 70.0001 69.6811 69.7822 69.8705 69.4315C70.0598 69.0813 70.0413 68.6549 69.8223 68.3222ZM29.4184 35.3334H30.4663L13.4503 67.8334H8.09079L29.4184 35.3334ZM38.5834 67.8334V63.5001H36.4167V67.8334H15.9005L32.9091 35.3334H36.4167V36.4168H38.5834V35.3334H42.0883L59.0964 67.8334H38.5834ZM61.5503 67.8334L44.5417 35.3334H45.5896L66.9093 67.8334H61.5503Z" fill="#6D758F"/>
<path d="M36.416 37.5H38.5827V39.6667H36.416V37.5Z" fill="#6D758F"/>
<path d="M36.416 41.8333H38.5827V45.0833H36.416V41.8333Z" fill="#6D758F"/>
<path d="M36.416 47.25H38.5827V51.5833H36.416V47.25Z" fill="#6D758F"/>
<path d="M36.416 54.8335H38.5827V60.2502H36.416V54.8335Z" fill="#6D758F"/>
<path d="M37.5 31C37.8216 31.0005 38.1263 30.8577 38.3321 30.6112C39.2446 29.5184 47.25 19.7832 47.25 14.75C47.25 9.3656 42.8849 5 37.5 5C32.1156 5 27.75 9.3656 27.75 14.75C27.75 19.7832 35.756 29.5184 36.6679 30.6112C36.8742 30.8577 37.1789 31.0005 37.5 31ZM37.5 7.16667C41.6863 7.17249 45.0781 10.5643 45.0833 14.75C45.0833 17.9794 40.1956 24.8036 37.5 28.1986C34.8038 24.8047 29.9167 17.9831 29.9167 14.75C29.9225 10.5643 33.3143 7.17249 37.5 7.16667Z" fill="#6D758F"/>
<path d="M41.8327 13.6666C41.8327 11.2735 39.8929 9.33325 37.4994 9.33325C35.1063 9.33325 33.166 11.2735 33.166 13.6666C33.166 16.0602 35.1063 17.9999 37.4994 17.9999C39.8929 17.9999 41.8327 16.0602 41.8327 13.6666ZM35.3327 13.6666C35.3327 12.4701 36.3028 11.4999 37.4994 11.4999C38.6964 11.4999 39.666 12.4701 39.666 13.6666C39.666 14.8637 38.6964 15.8333 37.4994 15.8333C36.3028 15.8333 35.3327 14.8637 35.3327 13.6666Z" fill="#6D758F"/>
</svg>
