<svg width="75" height="75" viewBox="0 0 75 75" fill="none" xmlns="http://www.w3.org/2000/svg">
<path d="M59.1673 5C53.1939 5 48.334 9.85988 48.334 15.8333C48.334 21.0147 56.0107 31.5017 57.8094 33.8885C57.8089 34.6595 57.8094 35.4165 57.7907 36.1113C57.7709 36.8584 58.3607 37.4814 59.1091 37.5012C59.121 37.5012 59.133 37.5012 59.1462 37.5012C59.8762 37.5012 60.4792 36.918 60.499 36.1828C60.5177 35.4698 60.5171 34.6916 60.5176 33.8987C62.3044 31.5282 70.0005 21.0208 70.0005 15.8333C70.0005 9.85988 65.1406 5 59.1673 5ZM59.1673 31.1708C56.1905 27.0753 51.0423 19.2809 51.0423 15.8333C51.0423 11.3528 54.6868 7.70829 59.1673 7.70829C63.6477 7.70829 67.2922 11.3528 67.2922 15.8333C67.2922 19.2809 62.144 27.0752 59.1673 31.1708Z" fill="#6D758F"/>
<path d="M59.1673 13.125C57.6743 13.125 56.459 14.3403 56.459 15.8333C56.459 17.3263 57.6743 18.5416 59.1673 18.5416C60.6602 18.5416 61.8756 17.3264 61.8756 15.8333C61.8756 14.3403 60.6602 13.125 59.1673 13.125Z" fill="#6D758F"/>
<path d="M21.25 34.7915C16.7696 34.7915 13.125 38.4361 13.125 42.9165C13.125 47.3969 16.7696 51.0415 21.25 51.0415C25.7304 51.0415 29.375 47.3969 29.375 42.9165C29.375 38.4361 25.7304 34.7915 21.25 34.7915ZM21.25 48.3331C18.2627 48.3331 15.8333 45.9038 15.8333 42.9164C15.8333 39.9289 18.2627 37.4998 21.25 37.4998C24.2373 37.4998 26.6667 39.929 26.6667 42.9165C26.6667 45.9039 24.2373 48.3331 21.25 48.3331Z" fill="#6D758F"/>
<path d="M41.7624 53.8055C41.0615 53.533 40.2812 53.8809 40.0102 54.5791C39.4032 56.1475 38.6442 57.9764 37.6206 59.6519C37.2304 60.2906 37.4328 61.1238 38.0702 61.5139C38.2911 61.6489 38.5344 61.7124 38.7751 61.7124C39.2313 61.7124 39.6769 61.4822 39.9322 61.0644C41.0669 59.205 41.8854 57.2373 42.536 55.5578C42.8058 54.8607 42.4594 54.0765 41.7624 53.8055Z" fill="#6D758F"/>
<path d="M34.1261 63.6879C32.7692 64.7631 31.2274 65.5724 29.4103 66.1635C28.6989 66.395 28.31 67.1593 28.5414 67.8708C28.7279 68.4421 29.2582 68.8058 29.8295 68.8058C29.9684 68.8058 30.1098 68.7846 30.2487 68.7397C32.3474 68.0573 34.2173 67.0721 35.8082 65.8117C36.3941 65.3462 36.4933 64.4946 36.0291 63.9087C35.5609 63.3244 34.7106 63.2199 34.1261 63.6879Z" fill="#6D758F"/>
<path d="M46.4507 44.0288C44.2159 45.297 42.9741 47.4988 42.2335 49.0434C41.9095 49.7179 42.1937 50.5272 42.8682 50.8498C43.0574 50.9411 43.2571 50.9834 43.4527 50.9834C43.9579 50.9834 44.442 50.7004 44.6747 50.2151C45.6149 48.2539 46.575 47.073 47.7889 46.3826C48.4383 46.0137 48.6671 45.1871 48.2968 44.5365C47.9292 43.886 47.1053 43.6572 46.4507 44.0288Z" fill="#6D758F"/>
<path d="M58.6631 40.6764C58.0482 40.2599 57.2032 40.4198 56.7826 41.0387C56.337 41.6974 55.4244 42.6032 52.6645 42.8505C51.9199 42.9179 51.3698 43.5751 51.4372 44.321C51.5007 45.0246 52.0918 45.5534 52.7848 45.5534C52.8258 45.5534 52.8668 45.5522 52.9079 45.5481C55.8397 45.2849 57.8405 44.3064 59.0255 42.5567C59.4448 41.9379 59.282 41.0956 58.6631 40.6764Z" fill="#6D758F"/>
<path d="M24.4587 67.3089C28.7316 62.7524 37.4999 52.2696 37.4999 42.9165C37.4999 33.8049 30.3615 26.6665 21.25 26.6665C12.1384 26.6665 5 33.8049 5 42.9165C5 55.01 19.6948 69.0383 20.3203 69.6295C20.5808 69.8768 20.9154 69.9998 21.25 69.9998C22.2365 69.9998 23.1741 69.9654 24.0627 69.898C24.8086 69.8411 25.3679 69.1918 25.3111 68.4459C25.2704 67.9121 24.925 67.4958 24.4587 67.3089ZM21.25 66.736C18.051 63.4723 7.70829 52.1999 7.70829 42.9165C7.70829 35.323 13.6567 29.3748 21.25 29.3748C28.8433 29.3748 34.7917 35.323 34.7917 42.9165C34.7917 52.1999 24.4489 63.4722 21.25 66.736Z" fill="#6D758F"/>
</svg>
