<svg width="75" height="75" viewBox="0 0 75 75" fill="none" xmlns="http://www.w3.org/2000/svg">
<path d="M69.6929 56.5455V55.4752C69.6929 53.8621 68.4778 52.5279 66.9149 52.3381C67.7906 44.4365 67.7896 39.0279 66.9149 31.1304C69.0632 30.9325 70.7513 29.1211 70.7513 26.9221C70.7513 25.5393 70.0839 24.3094 69.0544 23.5379C70.7026 21.335 71.2028 18.4072 70.3108 15.761C70.1249 15.2095 69.5271 14.9135 68.9757 15.0989C68.4243 15.2848 68.128 15.8826 68.3138 16.4341C69.0461 18.6065 68.5282 21.0323 66.9995 22.7221H57.5856C56.5232 21.5523 55.9415 20.0532 55.9415 18.4591C55.9415 14.9568 58.7909 12.1074 62.2932 12.1074C63.5091 12.1074 64.6912 12.4519 65.7119 13.1038C66.2025 13.4171 66.8538 13.2734 67.167 12.7829C67.4801 12.2924 67.3366 11.6408 66.8461 11.3277C65.4861 10.4591 63.9117 10.0001 62.2932 10.0001C57.6288 10.0001 53.8341 13.7949 53.8341 18.4593C53.8341 20.32 54.4284 22.0839 55.5278 23.5404C54.6224 24.2205 53.9988 25.2553 53.8629 26.4362C44.849 31.3495 31.0759 31.3495 22.062 26.4362C21.9261 25.2553 21.3025 24.2205 20.3971 23.5404C21.4963 22.0837 22.0906 20.3198 22.0906 18.4591C22.0906 13.7947 18.2959 10 13.6315 10C8.96794 10 5.17376 13.7947 5.17376 18.4591C5.17376 20.3207 5.76791 22.0847 6.86699 23.5404C5.83942 24.3123 5.17334 25.5407 5.17334 26.9219C5.17334 29.1212 6.86193 30.9328 9.01051 31.1304C8.70858 33.8889 8.38418 37.6163 8.35033 41.133C8.34471 41.7151 8.81199 42.1912 9.39377 42.1969C10.0053 42.1969 10.4523 41.7119 10.4576 41.1533C10.4915 37.6312 10.8258 33.8755 11.1286 31.149H16.1347C17.0213 39.0582 17.0232 44.4002 16.1359 52.3138H11.1279C10.9424 50.6395 10.7237 48.379 10.5867 46.004C10.5533 45.4229 10.0547 44.9793 9.47414 45.0126C8.89319 45.0461 8.44937 45.5441 8.48281 46.1252C8.6167 48.4467 8.82702 50.6588 9.01037 52.3378C7.44709 52.5274 6.23168 53.8615 6.23168 55.4749V56.5452C3.88346 56.5455 2 58.4527 2 60.7728C2 63.1037 3.89639 65 6.22718 65H21.0369C23.3679 65 25.2641 63.1037 25.2641 60.7728C25.2641 58.4483 23.3759 56.5455 21.0327 56.5455V55.4752C21.0327 53.8615 19.8169 52.5272 18.2533 52.338C18.6189 49.0392 18.8315 46.1739 18.8916 43.3822C22.3944 46.928 28.5868 51.2476 37.9621 51.2476C47.3374 51.2476 53.5298 46.928 57.0326 43.3822C57.0927 46.1739 57.3053 49.0392 57.6709 52.338C56.1073 52.5272 54.8915 53.8615 54.8915 55.4752V56.5455C52.5483 56.5455 50.6601 58.4483 50.6601 60.7728C50.6601 63.1037 52.5565 65 54.8872 65H69.697C72.0279 65 73.9242 63.1037 73.9242 60.7728C73.9246 58.4521 72.0403 56.5455 69.6929 56.5455ZM59.7887 52.3141C58.9014 44.4005 58.9033 39.0584 59.7899 31.1493H64.7963C65.6829 39.0585 65.6848 44.4005 64.7975 52.3141H59.7887ZM66.5239 29.0417H58.0613C56.8925 29.0417 55.9415 28.0907 55.9415 26.9219C55.9415 25.753 56.8925 24.802 58.0613 24.802H66.5239C67.6928 24.802 68.6437 25.753 68.6437 26.9219C68.6437 28.0908 67.6927 29.0417 66.5239 29.0417ZM54.2016 28.6428C54.3855 29.0536 54.6321 29.4303 54.9307 29.7595C52.4922 32.5411 47.3898 36.4466 37.9622 36.4466C28.5347 36.4466 23.4322 32.5411 20.9938 29.7595C21.2923 29.4303 21.5391 29.0536 21.7228 28.6428C31.0884 33.3935 44.8363 33.3935 54.2016 28.6428ZM7.28131 18.4591C7.28131 14.9568 10.13 12.1074 13.6316 12.1074C17.134 12.1074 19.9834 14.9568 19.9834 18.4591C19.9834 20.0532 19.4016 21.5523 18.3393 22.7221H8.92523C7.86295 21.5532 7.28131 20.0543 7.28131 18.4591ZM7.28089 26.9219C7.28089 25.753 8.23189 24.802 9.40066 24.802H17.8633C19.0321 24.802 19.9831 25.753 19.9831 26.9219C19.9831 28.0907 19.0321 29.0417 17.8633 29.0417H9.4008C8.23189 29.0417 7.28089 28.0908 7.28089 26.9219ZM23.1567 60.7728C23.1567 61.9416 22.2057 62.8926 21.0369 62.8926H6.22718C5.05827 62.8926 4.10741 61.9416 4.10741 60.7728C4.10741 59.6039 5.05841 58.6529 6.22718 58.6529H21.0369C22.2058 58.6529 23.1567 59.6038 23.1567 60.7728ZM18.9254 55.4752V56.5455H8.33923V55.4752C8.33923 54.8941 8.81185 54.4215 9.39293 54.4215H17.8717C18.4527 54.4215 18.9254 54.8941 18.9254 55.4752ZM37.9624 49.1402C27.7732 49.1402 21.6691 43.6147 18.895 40.2443C18.8832 39.6422 18.8647 39.0374 18.8389 38.426C25.8316 43.6113 34.3598 45.8001 42.542 44.5567C43.1174 44.4692 43.5129 43.932 43.4255 43.3566C43.3379 42.7813 42.8007 42.386 42.2254 42.4732C33.9839 43.7265 25.4156 41.2258 18.6738 35.6139C18.5687 34.1929 18.4285 32.7114 18.2533 31.1307C18.5869 31.0999 18.909 31.0301 19.2158 30.9261C21.8441 34.0228 27.4828 38.5543 37.9622 38.5543C48.4417 38.5543 54.0804 34.0228 56.7086 30.9261C57.0155 31.0301 57.3376 31.0999 57.6711 31.1307C57.4959 32.7125 57.3556 34.195 57.2505 35.6171C55.0579 37.4401 51.5248 39.8593 46.8434 41.3792C46.29 41.5589 45.9868 42.1533 46.1667 42.7067C46.3455 43.2576 46.9373 43.5639 47.4942 43.3836C51.5269 42.0745 54.7595 40.1414 57.0858 38.4225C57.0598 39.0353 57.0414 39.6413 57.0296 40.2445C54.2556 43.6147 48.1514 49.1402 37.9624 49.1402ZM56.9993 55.4752C56.9993 54.8941 57.4719 54.4215 58.053 54.4215H66.5318C67.1129 54.4215 67.5855 54.8941 67.5855 55.4752V56.5455H56.9993V55.4752ZM69.6974 62.8924H54.8877C53.7188 62.8924 52.7679 61.9414 52.7679 60.7727C52.7679 59.6038 53.7189 58.6528 54.8877 58.6528H69.6974C70.8663 58.6528 71.8172 59.6038 71.8172 60.7727C71.8172 61.9416 70.8663 62.8924 69.6974 62.8924Z" fill="#6D758F"/>
</svg>
